PathFileType	4	(X/Y/Z)	s06c0101.trc
DataRate	CameraRate	NumFrames	NumMarkers	Units	OrigDataRate	OrigDataStartFrame	OrigNumFrames
200	200	4	49	mm	200	750	2000
Frame#	Time	racr			lacr			c7			jug			rlel			rdr			llel			ldr			s2			lic			ric			lasi			rasi			rpsi			lpsi			rgt			lgt			rth1			rth2			rth3			rth4			rlfc			rmfc			rsh1			rsh2			rsh3			rsh4			rlmal			rmmal			rcal			rtoe			rmt5			lth1			lth2			lth4			lth3			llfc			lmfc			llmal			lcal			lmt5			lsh1			lsh2			lsh3			lsh4			ltoe			SBIKE			LBIKE			RBIKE			
		X1	Y1	Z1	X2	Y2	Z2	X3	Y3	Z3	X4	Y4	Z4	X5	Y5	Z5	X6	Y6	Z6	X7	Y7	Z7	X8	Y8	Z8	X9	Y9	Z9	X10	Y10	Z10	X11	Y11	Z11	X12	Y12	Z12	X13	Y13	Z13	X14	Y14	Z14	X15	Y15	Z15	X16	Y16	Z16	X17	Y17	Z17	X18	Y18	Z18	X19	Y19	Z19	X20	Y20	Z20	X21	Y21	Z21	X22	Y22	Z22	X23	Y23	Z23	X24	Y24	Z24	X25	Y25	Z25	X26	Y26	Z26	X27	Y27	Z27	X28	Y28	Z28	X29	Y29	Z29	X30	Y30	Z30	X31	Y31	Z31	X32	Y32	Z32	X33	Y33	Z33	X34	Y34	Z34	X35	Y35	Z35	X36	Y36	Z36	X37	Y37	Z37	X38	Y38	Z38	X39	Y39	Z39	X40	Y40	Z40	X41	Y41	Z41	X42	Y42	Z42	X43	Y43	Z43	X44	Y44	Z44	X45	Y45	Z45	X46	Y46	Z46	X47	Y47	Z47	X48	Y48	Z48	X49	Y49	Z49	
750	3.7500	514.929072	1274.889232	-95.394014	518.739922	1253.448209	-385.630204	520.567840	1330.057722	-249.326459	492.343031	1171.541065	-245.061639	525.477656	1045.048860	32.728784	714.980471	921.410431	-49.720828	473.928519	1002.566830	-469.270807	693.058680	934.451656	-413.388944	-42.231546	1178.858868	-202.590690	103.687328	1148.505348	-385.711590	112.783618	1137.471534	-51.372971	122.256603	1100.345150	-351.366531	139.176927	1097.267186	-89.439479	-5.681021	1219.211154	-175.335755	-15.529073	1216.851178	-233.857645	69.491658	1042.809968	-27.676225	88.043255	1118.375058	-405.983786	143.371176	927.995235	-22.509614	198.177460	857.649555	-36.658712	211.960076	772.271301	-44.736154	229.054832	874.824158	-48.588557	230.536757	667.603589	-59.268599	218.069607	647.859579	-171.778587	185.897958	554.206348	-34.985438	169.748468	470.679048	-57.296291	118.063508	400.807490	-58.902638	191.924605	465.566597	-90.697808	74.563061	331.228845	-65.434407	111.457159	314.509303	-153.621302	12.883161	343.121808	-114.741694	204.943161	144.359311	-98.639105	116.261004	196.898563	-36.366188	158.452787	1029.574016	-414.890283	242.951442	1009.395737	-406.120237	259.202214	1039.648726	-390.810367	307.807688	947.607951	-404.415028	380.165916	857.019871	-374.142613	378.475804	833.289740	-257.546748	210.512699	516.305046	-384.557241	135.750680	476.836969	-340.094479	332.615675	462.309663	-413.341415	339.138121	755.686743	-399.163130	318.178941	672.165544	-385.248968	262.846759	605.645784	-397.052080	340.344168	663.020421	-353.780113	416.648454	478.533183	-353.247290	-204.684551	868.735884	-220.847269	-50.437582	79.798018	-420.228336	-50.375892	79.869910	-22.885038	
751	3.7550	513.933971	1274.833817	-93.640803	518.510141	1254.981615	-384.140205	519.772019	1330.444351	-246.935352	491.931480	1171.831286	-243.314943	524.701514	1044.655679	33.870572	714.111026	921.339490	-48.546297	473.266170	1003.533238	-467.367335	692.688899	934.645114	-413.003073	-43.697843	1178.219309	-202.535000	103.067431	1147.190802	-385.649956	110.772343	1137.538585	-50.569754	121.940769	1099.207780	-351.076436	137.590245	1097.262721	-89.069764	-7.464959	1218.664011	-175.432211	-16.451498	1215.904039	-234.304255	68.996398	1043.462803	-26.570177	86.938314	1115.932886	-406.057626	145.108545	929.695803	-23.385359	202.206622	860.910684	-37.150825	218.211466	776.303301	-45.381425	231.813183	878.405003	-50.379162	236.835493	671.238631	-60.241857	223.949409	651.665492	-172.407414	188.702192	558.909156	-35.362988	170.266948	476.046163	-57.065104	115.883562	407.880929	-58.748432	191.765281	470.060622	-91.100117	70.358455	339.326663	-65.209957	107.050763	321.713542	-153.364056	8.451598	353.104179	-114.061374	196.721262	149.796976	-98.545348	109.077428	204.079446	-36.237702	156.839298	1025.053942	-414.401522	240.907667	1003.225140	-405.632421	257.820195	1033.447822	-391.066871	304.529052	940.188736	-403.364709	375.346831	849.374135	-373.488206	374.568322	825.586784	-256.989377	215.539713	504.615606	-383.609041	142.046523	463.041450	-338.716914	338.786735	454.663901	-413.536445	337.037136	747.020283	-398.547258	318.597421	662.878496	-384.237285	265.150166	594.723371	-395.798149	341.038728	654.423488	-352.863503	422.579892	472.954892	-353.810265	-204.711462	868.639077	-220.688986	-50.463202	79.841890	-420.285398	-50.380214	79.673594	-22.861142	
752	3.7600	512.716413	1274.729966	-92.238038	518.227380	1256.552193	-382.667756	519.012364	1330.613622	-244.468927	491.104783	1171.986143	-241.519922	524.278827	1044.355691	35.288062	713.525422	921.431917	-47.826748	472.738487	1004.403261	-465.535464	692.394081	934.830702	-412.581455	-44.681820	1177.404207	-195.374813	102.675825	1145.516626	-385.636367	108.672742	1137.321525	-49.806906	121.732466	1097.658451	-350.842355	136.035613	1096.788909	-88.781243	-8.685338	1217.946204	-175.882445	-17.502291	1214.657555	-234.800617	68.745168	1044.003982	-25.519215	85.920916	1113.129378	-406.143919	147.312572	931.354031	-23.571182	206.165922	864.430117	-37.460252	223.555480	780.035407	-46.217656	235.597403	882.943753	-50.985717	243.202978	674.811524	-61.075380	229.385580	655.285852	-173.507428	191.631280	563.711969	-35.502428	170.631642	481.293507	-57.176937	114.268291	414.912797	-58.688864	191.943481	474.932792	-91.034655	66.399040	347.683475	-65.015857	102.093863	329.352516	-153.317242	4.622817	362.834484	-113.680187	189.016716	155.783026	-98.550043	102.489902	211.717936	-36.137625	155.370916	1020.474418	-413.995192	238.999696	997.071078	-405.162751	256.551250	1026.978396	-390.861458	301.296139	932.809111	-402.328222	370.628520	841.349299	-372.811296	370.832743	817.553443	-256.579206	220.110772	493.218036	-382.655019	148.219636	449.464383	-337.179852	344.226326	445.995703	-413.287962	334.851803	737.753556	-397.741748	318.915259	653.406841	-383.311504	267.275585	583.716636	-394.235638	341.745921	645.633447	-351.904988	428.171369	466.585374	-354.831839	-204.742095	868.577586	-220.526997	-50.489703	79.807265	-420.231346	-50.416186	79.608221	-22.841752	
753	3.7650	511.369987	1274.522779	-91.041424	518.001142	1258.263266	-382.043041	518.146661	1330.633675	-242.265976	490.298559	1171.973117	-239.940244	523.355201	1044.287216	36.770837	713.072947	921.709927	-47.056742	472.310819	1005.217565	-463.979413	692.093123	935.009952	-412.153094	-45.931849	1175.940471	-195.703355	102.473996	1143.557505	-385.590758	106.648919	1136.804991	-49.165151	121.663375	1095.825326	-350.547782	134.473582	1096.322024	-87.860433	-10.310172	1216.773174	-176.358427	-18.610361	1213.156032	-235.382620	68.597242	1044.433084	-24.411110	85.146889	1109.951298	-406.294915	150.312529	933.339172	-23.350368	209.969481	867.580235	-38.374620	229.238747	783.646828	-46.755670	238.671121	886.469453	-52.132245	249.287785	678.213584	-61.796777	235.053310	658.721905	-173.876328	194.825786	568.455165	-35.664058	171.256303	486.814344	-57.283491	112.769366	422.318998	-58.525948	192.122832	479.585495	-91.452904	63.072865	356.404482	-64.783673	99.354966	337.813891	-152.589887	1.319483	372.775203	-113.325864	181.849585	162.261501	-98.573062	96.399212	219.847487	-36.084295	154.119025	1015.944238	-413.739134	237.225123	990.919318	-404.730116	255.193547	1020.468651	-390.236073	298.233850	925.524723	-401.442491	366.070510	833.018535	-372.283383	367.052538	809.722053	-256.382063	224.391282	481.618015	-381.580075	153.909487	436.430014	-335.442403	349.275664	437.137429	-413.440676	332.744859	728.363061	-397.264588	319.124225	643.751898	-382.197419	269.320008	572.460237	-392.552544	342.348473	636.855832	-351.042950	433.218467	459.450619	-355.765997	-204.784452	868.551869	-220.346763	-50.532286	79.789026	-420.196477	-50.432656	79.575296	-22.811991	
